#!OML:ASF F:\VICON\USERDATA\INSTALL\Justin_Nancy\Justin_Nancy.ASF
:FULLY-SPECIFIED
:DEGREES
381
root 0.566778 17.2645 8.84122 -0.821808 5.32239 1.99765
lowerback 6.05655 -2.47573 -3.29041
upperback -0.0317231 -3.44551 2.58146
thorax -3.0733 -1.64942 4.8138
lowerneck -17.6628 -3.32623 -9.85396
upperneck 21.4722 -3.23137 5.65519
head 10.0144 -1.65307 3.19125
rclavicle -2.81529e-014 1.51076e-014
rhumerus -44.9567 -30.9834 -64.8514
rradius 22.3015
rwrist 11.2161
rhand -14.708 9.7069
rfingers 7.12502
rthumb 11.4463 -19.9606
lclavicle -2.81529e-014 1.51076e-014
lhumerus -22.1204 1.69078 85.357
lradius 34.7022
lwrist -6.24963
lhand -15.3043 24.0674
lfingers 7.12502
lthumb 10.8712 53.766
rfemur -23.8092 1.49917 21.6338
rtibia 24.5778
rfoot 1.68901 -3.95554
rtoes -0.33067
lfemur 9.49579 -4.62063 -22.9343
ltibia 37.593
lfoot 7.13605 -9.66386
ltoes -21.827
382
root 0.557657 17.2846 9.05648 -1.026 4.9066 1.60436
lowerback 6.04541 -2.32038 -2.86107
upperback -0.0543461 -3.20431 2.67514
thorax -3.13385 -1.53301 4.65136
lowerneck -17.5165 -3.30952 -9.87363
upperneck 21.5453 -3.19946 5.57318
head 10.0097 -1.65254 3.17139
rclavicle 1.72943e-014 -1.59028e-014
rhumerus -45.1629 -31.4577 -64.2951
rradius 22.1043
rwrist 11.7889
rhand -14.4104 9.66705
rfingers 7.12502
rthumb 11.7334 -19.9843
lclavicle 1.72943e-014 -1.59028e-014
lhumerus -22.5928 2.07115 85.4011
lradius 34.6747
lwrist -6.52268
lhand -16.7499 22.4468
lfingers 7.12502
lthumb 9.47668 52.2137
rfemur -23.0256 1.11171 22.3799
rtibia 24.8273
rfoot 1.2643 -3.29688
rtoes 2.0621
lfemur 8.26563 -4.51013 -22.3402
ltibia 39.9049
lfoot 11.1171 -9.93786
ltoes -16.2525
383
root 0.544631 17.3072 9.25534 -1.07085 4.49328 1.55766
lowerback 6.0574 -2.21472 -2.84845
upperback -0.017881 -3.06189 2.70418
thorax -3.11606 -1.46305 4.66307
lowerneck -17.7926 -3.2406 -9.80674
upperneck 21.6174 -3.06313 5.44807
head 10.0723 -1.59592 3.13476
rclavicle 2.67614e-014 -1.82882e-014
rhumerus -44.8858 -31.6056 -64.1674
rradius 21.8014
rwrist 11.971
rhand -14.3735 10.2798
rfingers 7.12502
rthumb 11.7689 -19.3695
lclavicle 2.67614e-014 -1.82882e-014
lhumerus -22.6799 2.81158 85.3659
lradius 34.3979
lwrist -6.79714
lhand -19.3486 19.3333
lfingers 7.12502
lthumb 6.96866 49.1986
rfemur -22.4511 0.901201 22.7002
rtibia 25.0672
rfoot 0.842675 -2.96979
rtoes 4.56146
lfemur 6.79797 -4.33023 -22.0969
ltibia 42.1132
lfoot 15.2118 -10.4168
ltoes -11.9717
384
root 0.520478 17.3362 9.46075 -1.45079 4.68098 1.34584
lowerback 6.29195 -2.24367 -2.69363
upperback 0.18406 -3.09388 2.70672
thorax -3.04295 -1.48617 4.58609
lowerneck -18.1259 -3.29278 -9.91341
upperneck 21.7565 -3.11236 5.60339
head 10.1934 -1.60696 3.20273
rclavicle 2.05494e-014 1.35174e-014
rhumerus -44.4632 -31.3507 -64.6696
rradius 21.8609
rwrist 11.747
rhand -14.5734 10.8529
rfingers 7.12502
rthumb 11.5761 -18.8074
lclavicle 2.05494e-014 1.35174e-014
lhumerus -22.6016 3.14616 85.3371
lradius 34.1436
lwrist -6.76049
lhand -20.1655 18.0108
lfingers 7.12502
lthumb 6.18004 47.9006
rfemur -21.248 0.84695 23.0911
rtibia 25.0964
rfoot 0.256953 -3.36104
rtoes 6.76561
lfemur 5.69209 -4.6343 -21.6193
ltibia 44.297
lfoot 18.9279 -11.1042
ltoes -10.9478
385
root 0.51168 17.3608 9.6575 -1.5636 4.33584 1.07274
lowerback 6.32988 -2.09196 -2.21355
upperback 0.266451 -2.86043 2.61311
thorax -3.02965 -1.37821 4.19794
lowerneck -18.0261 -3.37996 -9.79619
upperneck 21.5446 -3.2821 5.63679
head 10.1114 -1.66965 3.16755
rclavicle -2.1419e-014 2.38542e-014
rhumerus -44.2143 -31.2963 -65.1458
rradius 22.1306
rwrist 11.7544
rhand -14.6069 10.7872
rfingers 7.12502
rthumb 11.5439 -18.8749
lclavicle -2.1419e-014 2.38542e-014
lhumerus -22.7633 3.63296 85.1704
lradius 34.1629
lwrist -7.37373
lhand -18.7882 18.846
lfingers 7.12502
lthumb 7.50963 48.6927
rfemur -20.3994 0.897247 23.5476
rtibia 25.036
rfoot -0.351754 -3.09179
rtoes 6.61077
lfemur 4.26569 -4.63285 -21.224
ltibia 46.5124
lfoot 22.3558 -11.2072
ltoes -9.68328
386
root 0.497749 17.3885 9.8536 -1.64883 4.09999 0.670968
lowerback 6.40086 -2.01421 -1.79578
upperback 0.283378 -2.72386 2.70518
thorax -3.07874 -1.31448 4.04987
lowerneck -17.9008 -3.34802 -9.79662
upperneck 21.2449 -3.24296 5.64433
head 9.97739 -1.64814 3.17139
rclavicle -2.18912e-014 3.97569e-015
rhumerus -43.8093 -30.8934 -65.5599
rradius 22.3683
rwrist 11.5928
rhand -14.574 10.3132
rfingers 7.12502
rthumb 11.5756 -19.3471
lclavicle -2.18912e-014 3.97569e-015
lhumerus -23.1702 3.95457 85.1672
lradius 34.3005
lwrist -7.6463
lhand -16.5237 20.9937
lfingers 7.12502
lthumb 9.69488 50.7505
rfemur -19.5043 1.02605 24.1541
rtibia 24.878
rfoot -0.833376 -2.93727
rtoes 4.95724
lfemur 2.76577 -4.66293 -20.6302
ltibia 48.7293
lfoot 25.4903 -11.6216
ltoes -6.3339
